$MeshFormat
4.1 0 8
$EndMeshFormat
$Entities
6 6 1 0
1 0 1 0 0 
2 0 0 0 0 
3 0.5 1 0 0 
4 0.4999999999999999 0.7 0 0 
5 0.4999999999999998 0.3 0 0 
6 0.5 0 0 0 
1 -1e-07 -9.999999994736442e-08 -1e-07 1e-07 1.0000001 1e-07 0 2 1 -2 
2 -9.999999997511999e-08 0.9999999000000001 -1e-07 0.5000000999999999 1.0000001 1e-07 0 2 3 -1 
3 0.4999999 0.6999999 -1e-07 0.5000000999999999 1.0000001 1e-07 0 2 4 -3 
4 0.2999999 0.2999999 -1e-07 0.5000000999999999 0.7000000999999999 1e-07 0 2 4 -5 
5 0.4999999 -1.000000000028756e-07 -1e-07 0.5000000999999999 0.3000001 1e-07 0 2 6 -5 
6 -9.999999997511999e-08 -1e-07 -1e-07 0.5000000999999999 1e-07 1e-07 0 2 2 -6 
1 -9.999999997511999e-08 -9.999999994736442e-08 -1e-07 0.5000000999999999 1.0000001 1e-07 0 6 1 6 5 -4 3 2 
$EndEntities
$Nodes
13 920 1 920
0 1 0 1
1
0 1 0
0 2 0 1
2
0 0 0
0 3 0 1
3
0.5 1 0
0 4 0 1
4
0.4999999999999999 0.7 0
0 5 0 1
5
0.4999999999999998 0.3 0
0 6 0 1
6
0.5 0 0
1 1 0 39
7
8
9
10
11
12
13
14
15
16
17
18
19
20
21
22
23
24
25
26
27
28
29
30
31
32
33
34
35
36
37
38
39
40
41
42
43
44
45
0 0.975 0
0 0.95 0
0 0.925 0
0 0.9 0
0 0.875 0
0 0.85 0
0 0.825 0
0 0.8 0
0 0.775 0
0 0.75 0
0 0.725 0
0 0.7 0
0 0.675 0
0 0.65 0
0 0.625 0
0 0.6 0
0 0.575 0
0 0.55 0
0 0.525 0
0 0.5 0
0 0.475 0
0 0.45 0
0 0.425 0
0 0.4 0
0 0.375 0
0 0.35 0
0 0.325 0
0 0.3 0
0 0.275 0
0 0.25 0
0 0.225 0
0 0.2 0
0 0.175 0
0 0.15 0
0 0.125 0
0 0.09999999999999998 0
0 0.07499999999999996 0
0 0.05000000000000004 0
0 0.02500000000000002 0
1 2 0 19
46
47
48
49
50
51
52
53
54
55
56
57
58
59
60
61
62
63
64
0.475 1 0
0.45 1 0
0.425 1 0
0.4 1 0
0.375 1 0
0.35 1 0
0.325 1 0
0.3 1 0
0.275 1 0
0.25 1 0
0.225 1 0
0.2 1 0
0.175 1 0
0.15 1 0
0.125 1 0
0.09999999999999998 1 0
0.07500000000000001 1 0
0.04999999999999999 1 0
0.02500000000000002 1 0
1 3 0 11
65
66
67
68
69
70
71
72
73
74
75
0.5 0.725 0
0.5 0.7500000000000001 0
0.5 0.7750000000000001 0
0.5 0.8000000000000003 0
0.5 0.8250000000000003 0
0.5 0.8500000000000003 0
0.5 0.8750000000000004 0
0.5 0.9000000000000005 0
0.5 0.9250000000000004 0
0.5 0.9500000000000003 0
0.5 0.9750000000000001 0
1 4 0 25
76
77
78
79
80
81
82
83
84
85
86
87
88
89
90
91
92
93
94
95
96
97
98
99
100
0.4758926639489354 0.6985417748196108 0
0.4521368671424885 0.6941883634852104 0
0.4290790225914929 0.6870032485370829 0
0.4070553655912463 0.677091205130642 0
0.3863870506537689 0.6645967731787313 0
0.367375468351841 0.6497021496342202 0
0.3502978503657798 0.6326245316481591 0
0.3354032268212687 0.6136129493462312 0
0.322908794869358 0.5929446344087538 0
0.3129967514629171 0.5709209774085071 0
0.3058116365147896 0.5478631328575115 0
0.3014582251803892 0.5241073360510647 0
0.3 0.5 0
0.3014582251803892 0.4758926639489354 0
0.3058116365147896 0.4521368671424885 0
0.3129967514629171 0.4290790225914929 0
0.322908794869358 0.4070553655912463 0
0.3354032268212687 0.3863870506537689 0
0.3502978503657798 0.367375468351841 0
0.3673754683518409 0.3502978503657798 0
0.3863870506537688 0.3354032268212687 0
0.4070553655912463 0.322908794869358 0
0.4290790225914928 0.3129967514629171 0
0.4521368671424883 0.3058116365147896 0
0.4758926639489353 0.3014582251803892 0
1 5 0 11
101
102
103
104
105
106
107
108
109
110
111
0.5 0.02500000000000001 0
0.5 0.05000000000000002 0
0.5 0.07500000000000005 0
0.5 0.1000000000000001 0
0.5 0.1250000000000001 0
0.5 0.1500000000000002 0
0.5 0.1750000000000002 0
0.5 0.2000000000000003 0
0.5 0.2250000000000003 0
0.5 0.2500000000000003 0
0.5 0.2750000000000001 0
1 6 0 19
112
113
114
115
116
117
118
119
120
121
122
123
124
125
126
127
128
129
130
0.025 0 0
0.05 0 0
0.075 0 0
0.1 0 0
0.125 0 0
0.15 0 0
0.175 0 0
0.2 0 0
0.225 0 0
0.25 0 0
0.275 0 0
0.3 0 0
0.325 0 0
0.35 0 0
0.375 0 0
0.4 0 0
0.425 0 0
0.45 0 0
0.475 0 0
2 1 0 790
131
132
133
134
135
136
137
138
139
140
141
142
143
144
145
146
147
148
149
150
151
152
153
154
155
156
157
158
159
160
161
162
163
164
165
166
167
168
169
170
171
172
173
174
175
176
177
178
179
180
181
182
183
184
185
186
187
188
189
190
191
192
193
194
195
196
197
198
199
200
201
202
203
204
205
206
207
208
209
210
211
212
213
214
215
216
217
218
219
220
221
222
223
224
225
226
227
228
229
230
231
232
233
234
235
236
237
238
239
240
241
242
243
244
245
246
247
248
249
250
251
252
253
254
255
256
257
258
259
260
261
262
263
264
265
266
267
268
269
270
271
272
273
274
275
276
277
278
279
280
281
282
283
284
285
286
287
288
289
290
291
292
293
294
295
296
297
298
299
300
301
302
303
304
305
306
307
308
309
310
311
312
313
314
315
316
317
318
319
320
321
322
323
324
325
326
327
328
329
330
331
332
333
334
335
336
337
338
339
340
341
342
343
344
345
346
347
348
349
350
351
352
353
354
355
356
357
358
359
360
361
362
363
364
365
366
367
368
369
370
371
372
373
374
375
376
377
378
379
380
381
382
383
384
385
386
387
388
389
390
391
392
393
394
395
396
397
398
399
400
401
402
403
404
405
406
407
408
409
410
411
412
413
414
415
416
417
418
419
420
421
422
423
424
425
426
427
428
429
430
431
432
433
434
435
436
437
438
439
440
441
442
443
444
445
446
447
448
449
450
451
452
453
454
455
456
457
458
459
460
461
462
463
464
465
466
467
468
469
470
471
472
473
474
475
476
477
478
479
480
481
482
483
484
485
486
487
488
489
490
491
492
493
494
495
496
497
498
499
500
501
502
503
504
505
506
507
508
509
510
511
512
513
514
515
516
517
518
519
520
521
522
523
524
525
526
527
528
529
530
531
532
533
534
535
536
537
538
539
540
541
542
543
544
545
546
547
548
549
550
551
552
553
554
555
556
557
558
559
560
561
562
563
564
565
566
567
568
569
570
571
572
573
574
575
576
577
578
579
580
581
582
583
584
585
586
587
588
589
590
591
592
593
594
595
596
597
598
599
600
601
602
603
604
605
606
607
608
609
610
611
612
613
614
615
616
617
618
619
620
621
622
623
624
625
626
627
628
629
630
631
632
633
634
635
636
637
638
639
640
641
642
643
644
645
646
647
648
649
650
651
652
653
654
655
656
657
658
659
660
661
662
663
664
665
666
667
668
669
670
671
672
673
674
675
676
677
678
679
680
681
682
683
684
685
686
687
688
689
690
691
692
693
694
695
696
697
698
699
700
701
702
703
704
705
706
707
708
709
710
711
712
713
714
715
716
717
718
719
720
721
722
723
724
725
726
727
728
729
730
731
732
733
734
735
736
737
738
739
740
741
742
743
744
745
746
747
748
749
750
751
752
753
754
755
756
757
758
759
760
761
762
763
764
765
766
767
768
769
770
771
772
773
774
775
776
777
778
779
780
781
782
783
784
785
786
787
788
789
790
791
792
793
794
795
796
797
798
799
800
801
802
803
804
805
806
807
808
809
810
811
812
813
814
815
816
817
818
819
820
821
822
823
824
825
826
827
828
829
830
831
832
833
834
835
836
837
838
839
840
841
842
843
844
845
846
847
848
849
850
851
852
853
854
855
856
857
858
859
860
861
862
863
864
865
866
867
868
869
870
871
872
873
874
875
876
877
878
879
880
881
882
883
884
885
886
887
888
889
890
891
892
893
894
895
896
897
898
899
900
901
902
903
904
905
906
907
908
909
910
911
912
913
914
915
916
917
918
919
920
0.343910636846661 0.3445426834071762 0
0.344917693423133 0.6562218873591383 0
0.02164619908913096 0.2125293747557729 0
0.0200573393568356 0.7867789813015336 0
0.2112443462920371 0.9790806457080887 0
0.2126681169277626 0.02203610208832107 0
0.02087493171157695 0.3109756360512588 0
0.02122900303185138 0.687574568330879 0
0.3124970629386785 0.02024636100139843 0
0.3124927118937655 0.9829643324450184 0
0.2897957601848765 0.5659377207545389 0
0.2899803923759614 0.4345552269293697 0
0.02212195444036702 0.5114324784389598 0
0.02153271216220171 0.4150775433893772 0
0.4785444768101232 0.1596924775222156 0
0.4796608114474296 0.8362144273214516 0
0.01890952997338452 0.5847332755395923 0
0.02150511330575042 0.8627471001501535 0
0.02164408581904981 0.1392738006427758 0
0.4094831126979777 0.2988797267196891 0
0.4095877038567341 0.7005737858045741 0
0.1375 0.02165063509461096 0
0.1375319809187012 0.9783253975610223 0
0.388095910304721 0.978687104385777 0
0.387269208254741 0.02257034557688437 0
0.3100396009909838 0.3848433626437745 0
0.3110664187691436 0.6117327040340884 0
0.2814957896934839 0.5146566576541437 0
0.4804679274665142 0.09243279134280435 0
0.4764560683412305 0.9121815633416595 0
0.4766733872322747 0.7605915986099518 0
0.4772829882692599 0.2396372353855593 0
0.02543834643328691 0.3622218669347421 0
0.02187857277209293 0.6392829826717397 0
0.02078116049988549 0.4625964313079662 0
0.02134410786138924 0.2625093135008008 0
0.02164096125900403 0.7374816664067253 0
0.2625 0.978349364905389 0
0.2633563292816832 0.02012139394089685 0
0.02165063509461093 0.08750000000000008 0
0.02066755512036361 0.9112880584342171 0
0.08557382457989246 0.02285853150037809 0
0.08751948703295032 0.9783056906678339 0
0.4372938605280806 0.978468616404792 0
0.4380878735527002 0.02161976059349258 0
0.0214582519625916 0.9633028946742719 0
0.02165063509461093 0.03749999999999987 0
0.4583183695070753 0.7171762699032206 0
0.4583175501051852 0.282766330125183 0
0.4773522016983108 0.960207831128249 0
0.4788051432845369 0.03780328339056299 0
0.363689659641428 0.6721442233442638 0
0.3398587365493652 0.6795265829878639 0
0.3216133305922619 0.6638896135425433 0
0.3172884566995454 0.6887682680174443 0
0.2985916512197878 0.6731389947958257 0
0.2944973944732066 0.6973204197039531 0
0.2757177676487105 0.6817341005441548 0
0.2716380605128376 0.7058214647830142 0
0.2904284758828243 0.7213880753872658 0
0.267541733341298 0.729908177541488 0
0.2863949075060257 0.7454941530603374 0
0.263433947709031 0.7540381741285067 0
0.2528492857672006 0.690257448367362 0
0.2823331565427123 0.7696652067678836 0
0.259344235513212 0.7782271967000388 0
0.2404219344489694 0.7625674959125031 0
0.2363267000496247 0.7867929280169605 0
0.2173578470538644 0.7710940108096122 0
0.2132555051042519 0.7953993530179915 0
0.2782698850945068 0.7938688571583201 0
0.3012799971128012 0.7852918199018724 0
0.1942494296686917 0.7796523465306004 0
0.1901288406175093 0.80399075342004 0
0.2972177054858445 0.8095339971303652 0
0.2091579883954329 0.8197407542419917 0
0.1859999613872215 0.8283432337870723 0
0.3202757937983936 0.8009344602082344 0
0.3162008363894176 0.8252315521951084 0
0.1711140700524846 0.7882391561033228 0
0.1752482308457429 0.7638860536234169 0
0.3392938209669597 0.816608514407249 0
0.3352144814496295 0.8409516251304396 0
0.3120777858381825 0.8495763511066091 0
0.2050501038449167 0.844106596032201 0
0.1818402656676205 0.8527416999155272 0
0.1520976141963817 0.7724754188299492 0
0.156242704275836 0.7481160643392161 0
0.3311197701687607 0.8653346771613255 0
0.3543043315889001 0.8566931317285055 0
0.2569569967693019 0.6661796709719483 0
0.2340628811214489 0.6746260495874536 0
0.2381503977872587 0.650551247969975 0
0.2152387351420137 0.6590082055413635 0
0.2193281800529076 0.6349116668471178 0
0.1963616438157593 0.6434132945458985 0
0.200486569752666 0.6192427490143628 0
0.1774818183449676 0.6277708082933803 0
0.1816177340658205 0.6035592882856784 0
0.1585704851052249 0.6120986487350428 0
0.1627181407309023 0.587884593875887 0
0.1544390311857108 0.6363360935282841 0
0.1857652632582987 0.579346578248504 0
0.166877306220206 0.5636460551801026 0
0.143801323317759 0.5721749050999698 0
0.1479726286691026 0.5479324584916708 0
0.1710436874162921 0.5394216790631593 0
0.1521640648467296 0.5237044551893114 0
0.1743015194848563 0.5163184558280288 0
0.1561933244979311 0.4996811752452835 0
0.1810662235468481 0.493397372332661 0
0.1608697722107699 0.4757467723483671 0
0.1825926336772141 0.46707101532263 0
0.1647724526782248 0.4512658020815592 0
0.1866854378255272 0.4425566320843943 0
0.168793843346046 0.4269690283911629 0
0.1906445414940347 0.4182716611129764 0
0.1728715021602441 0.4027526312230703 0
0.1951500674217968 0.3941472795423486 0
0.1771246443492198 0.3785886248125013 0
0.1992945313359945 0.3699675594154638 0
0.1812546309864954 0.354405878409691 0
0.2034592365460574 0.3457895731206477 0
0.1853906684204823 0.3302193479393932 0
0.208406972965372 0.3217382437817152 0
0.189692257476475 0.3060507544703206 0
0.2127452252270115 0.2975681313465156 0
0.1939076741399288 0.2818546493469635 0
0.2169659186433726 0.273359630918609 0
0.1980791997779321 0.2576135570683502 0
0.2211767779080315 0.249115326238821 0
0.2022577656020371 0.233338300379402 0
0.2254009676157565 0.2248305683127106 0
0.2064392994330319 0.2090310359012939 0
0.2296146081292695 0.2005363512927696 0
0.2485634991752331 0.2163243358268089 0
0.2527879215075208 0.1920451143488389 0
0.2717164699048611 0.2078169819786102 0
0.2759380636178901 0.1835235499593623 0
0.2948660873094686 0.1993097523536402 0
0.2990802545753957 0.1750115683988583 0
0.2105980146199666 0.1847728996308722 0
0.1874218562561529 0.1932681323767456 0
0.3180330717141641 0.1908084813891368 0
0.3222237477898307 0.1664834217239037 0
0.1915807034143293 0.1689224880618086 0
0.1749347119335514 0.2661974064641837 0
0.1683743352708261 0.1774538291383742 0
0.1623514039975219 0.3390843317674356 0
0.3412180577084369 0.1823118265921452 0
0.3454179684919239 0.1579360830870515 0
0.2800680837415685 0.1592007098851653 0
0.1725410264055408 0.1530626196963227 0
0.3138826000299105 0.2143464947615351 0
0.1498840163788923 0.4118675733248425 0
0.1493434724524693 0.1616413097621181 0
0.1451191838565501 0.1860575811751675 0
0.1955555822876356 0.1446454795989834 0
0.2358198315227927 0.289109066891073 0
0.1374997059174395 0.4845618681318595 0
0.1531434747441796 0.1373746594850754 0
0.364430713132852 0.1737981142220914 0
0.3686760793322935 0.1493996085751599 0
0.3496221441663437 0.1335214657053171 0
0.3079314354381286 0.8739656720574354 0
0.3729145074670168 0.1249679128537013 0
0.1248588496855739 0.5564372739369579 0
0.3434134537556736 0.792426695341273 0
0.1330488487128813 0.7566943802376955 0
0.1288928495190303 0.7810936440611431 0
0.2009563836408978 0.8685445555347371 0
0.1777069833142562 0.8771884903760875 0
0.1585865601220133 0.8613656405205493 0
0.1260738129848141 0.1702256651582094 0
0.1218474877634474 0.1946424256452967 0
0.3603868477905061 0.1981904153918078 0
0.3623981998127455 0.8079956884042854 0
0.1354875069323332 0.6206528952081916 0
0.1313468194056077 0.6449326141448274 0
0.3834340320489756 0.1896593420904995 0
0.3502102261112539 0.8811289999145023 0
0.3734405506285996 0.8724760919196483 0
0.2294689229560389 0.3383484033070189 0
0.1544386039434925 0.8858454324290704 0
0.1352964427303093 0.8699986099479434 0
0.3538485549778109 0.1090782032808311 0
0.3665167806514927 0.7838159626422748 0
0.3854829819711879 0.7993575196032618 0
0.1309598946069409 0.8940288811373391 0
0.2058888914188861 0.4607953660770789 0
0.1027852908196023 0.1788342391183811 0
0.1066223444324107 0.1546008608014466 0
0.112352360146625 0.6291974382499896 0
0.1081876579488761 0.6535363492517184 0
0.1098236885805011 0.7652896659556795 0
0.1056666189552931 0.7897238066500625 0
0.193907355741252 0.5315650560943156 0
0.2200640960794221 0.3836105032039071 0
0.09855855997648727 0.2032376025125084 0
0.111943011153246 0.8785633862790201 0
0.3793969622269699 0.2140344537061006 0
0.1922680554807047 0.6674096722357753 0
0.1140445289430282 0.7410102364941311 0
0.3919768372763888 0.140863876399619 0
0.3962287550273769 0.1163904374509224 0
0.1968266288082686 0.8930031798835893 0
0.220094942088233 0.884345150893197 0
0.334897745274835 0.7031992607157381 0
0.4023965944717229 0.205500133404753 0
0.3693341499616078 0.8969455662393442 0
0.3926081410145962 0.8882646038755175 0
0.222103004538953 0.6106481676861446 0
0.3895768227094077 0.7750607774653686 0
0.4085528676965033 0.7907007326386699 0
0.107595015383231 0.9026114403934919 0
0.3460684961459748 0.9056100032738275 0
0.2675041575579881 0.2320979370895629 0
0.1176465963468508 0.2191058873056901 0
0.09436097171529012 0.227697244375636 0
0.1134507285692702 0.2435575501942326 0
0.3305460989764482 0.1176490528170809 0
0.3967063847722003 0.8637792054912158 0
0.2298886420835941 0.6986107041447827 0
0.2742111419179088 0.818111469923142 0
0.09017202093798107 0.2521608329353775 0
0.1092533546847297 0.2680130075449596 0
0.1271715193001872 0.6691639378139572 0
0.1040970241156672 0.6777836234849866 0
0.08598332966322747 0.2766146986063841 0
0.1050650370961314 0.292472686138915 0
0.3347544637804206 0.09320146029079313 0
0.3114589927924711 0.1017791987434993 0
0.1513140043183152 0.9125956091777325 0
0.2159656288291014 0.9088250883557777 0
0.2391544182014384 0.9001350010502789 0
0.4158491812492772 0.8794518519025583 0
0.4117885268427542 0.9041009518570531 0
0.08858323453890837 0.8871944314934261 0
0.09288267813408838 0.8627842072947947 0
0.08465687377690306 0.9114646092616313 0
0.3981800359746979 0.2298145485449949 0
0.3759026730254676 0.2375828854395733 0
0.4153182733511168 0.1323189529895593 0
0.3580032544240885 0.08457230001063748 0
0.09075348988817108 0.7494811636650328 0
0.4126636994491333 0.7664040675799499 0
0.08179833849115295 0.3010643624461509 0
0.1008710737271245 0.31691476166587 0
0.08498346742098573 0.6621303129164857 0
0.08082963595249365 0.6862531127634077 0
0.07760564541540288 0.3255044308431012 0
0.09668472202463813 0.3413377313294166 0
0.08035496779377116 0.1875423259463139 0
0.3720962428923421 0.7551771353562762 0
0.4195734490458946 0.1078037920940122 0
0.2433038400381772 0.8756485660099667 0
0.1793923896494777 0.7395368293720507 0
0.4199655377064789 0.8550737572257456 0
0.1247477184430969 0.805498356958898 0
0.16053612549406 0.7237974981185105 0
0.3652164984196968 0.9214559040841988 0
0.2609684548158586 0.6426097299274196 0
0.4391444305711215 0.8707345575704839 0
0.2351034774761563 0.9246547079281595 0
0.2581517679189093 0.9158735287234308 0
0.4386932361216258 0.1237511776935133 0
0.4199182896095787 0.2210763899185517 0
0.4253523304356293 0.1969609456968219 0
0.07341864916701391 0.3499443971258387 0
0.09249353682035888 0.3657751013931171 0
0.06922282360134477 0.374381172248714 0
0.08829779081457226 0.3902357701706252 0
0.1031798716617611 0.926701392759283 0
0.4139631426290793 0.2460067572674843 0
0.3156610169845399 0.07730605638682259 0
0.292356440564262 0.08588741803859479 0
0.3418718225580554 0.9300293794452477 0
0.06724897552500378 0.2345301294334982 0
0.4316632008141787 0.7820844965002001 0
0.115749011199157 0.357149132301926 0
0.1283231985419975 0.2838413877005225 0
0.2881663432129667 0.1103574792291979 0
0.2690530361204834 0.0944827130321077 0
0.2648602721357215 0.1189451892168946 0
0.245740745657237 0.1030778641109266 0
0.2499479136874693 0.07858201914667168 0
0.2266099700828641 0.08718861142035161 0
0.3227433404010671 0.9142727752839723 0
0.4344226455452417 0.1482927552288032 0
0.4004529626592671 0.09186860649014539 0
0.4238297570461523 0.08326101532143482 0
0.1933126733533223 0.9159854721596281 0
0.1206968544243878 0.5807328258204028 0
0.1016969821092961 0.5649850449871961 0
0.1058901538408537 0.5406313804203386 0
0.08268460480178175 0.5491673587022884 0
0.08689795345042681 0.524775119800901 0
0.07848352024663868 0.5735770129205271 0
0.05942576860173293 0.5577210588275374 0
0.136711285036436 0.2349404163022401 0
0.2282245147022467 0.8354823939138207 0
0.2214903442936849 0.7468510569056568 0
0.3089964881280989 0.7368758886589994 0
0.1015069846868201 0.8141838057247386 0
0.08238035767900739 0.7983484049229849 0
0.4290469182326375 0.8065928240535181 0
0.2890262267120141 0.858178301571641 0
0.18359354534822 0.7153045458584073 0
0.2416292858895245 0.1275622764276695 0
0.07821640616584713 0.8228449911904192 0
0.1649473278599248 0.6997784599631175 0
0.1230520653710519 0.6930397722628996 0
0.4534498840016229 0.7976324695357564 0
0.06502931098467829 0.8951037827487338 0
0.4046931823716912 0.06730576843684966 0
0.4353612748784434 0.7588318933096438 0
0.05985616090138773 0.9192712543804151 0
0.06540302952608776 0.3988918462029904 0
0.08417659230725003 0.4146747924019427 0
0.06169444769828886 0.4234188014027928 0
0.08007321470231285 0.4391383653204006 0
0.1031678802611783 0.4305346654393377 0
0.09888090286164963 0.4549275323992209 0
0.07575502709726109 0.4635410746198532 0
0.09507317706381524 0.4788243448009033 0
0.07200190899023629 0.487361713468956 0
0.06266952458566807 0.2866286987412706 0
0.2964421555608963 0.0618795018037025 0
0.06208449609198835 0.6702411453048106 0
0.0658865009004346 0.646266677671353 0
0.2308220040534969 0.06266118906494866 0
0.2074689792119002 0.07128346341795078 0
0.2033034620666444 0.0957695960945083 0
0.1841200130072445 0.07991685503298729 0
0.1887756479430119 0.05661831529332884 0
0.1650231210570194 0.06421418332946083 0
0.1608110904456319 0.08854143171761514 0
0.1415989129663965 0.07268453472860109 0
0.1374448564292353 0.09716180144513442 0
0.1182630412237348 0.08141472680957307 0
0.1140920628384277 0.1058080449040454 0
0.09489728695246166 0.09007676435739981 0
0.0907211685383239 0.1144674791370373 0
0.07073301282793906 0.0981803229493623 0
0.07523428184004785 0.07330229271964067 0
0.06733682326554385 0.1231384994775745 0
0.1221854427380348 0.4463606868629026 0
0.4433362772501033 0.2162795372430535 0
0.3814933913395893 0.8236478643263361 0
0.05818828529232239 0.6943530035001271 0
0.1101845243563289 0.5164133527517069 0
0.05934113740677177 0.8077574344865168 0
0.06311211523140486 0.7847994674064122 0
0.05389197162325118 0.832871713847033 0
0.1395237768946613 0.8455528575475453 0
0.4158515797127808 0.7418079434894284 0
0.2849574296485329 0.8825722681247475 0
0.3604492807696361 0.9445743161966744 0
0.3842144635889249 0.9382141316341353 0
0.3182220034191069 0.9378104536860559 0
0.2994249604793827 0.9229386826234347 0
0.2945649228879853 0.9472994967572561 0
0.09516305420548621 0.7253636951933631 0
0.0677660217416062 0.733094917097489 0
0.1222600871744171 0.05815679758178927 0
0.05490416057610947 0.3341903474820195 0
0.4499386964631991 0.1899225398822092 0
0.427406179885767 0.05950857077477734 0
0.3026444077046244 0.6493832217333496 0
0.2539970245131915 0.9395913838868708 0
0.1741453848869756 0.04119943539452509 0
0.4433121056225546 0.8463239899427613 0
0.05649904388178814 0.5823921457998933 0
0.07453436471044272 0.5979613920202584 0
0.05103813282879024 0.6066462396716227 0
0.2343171715995706 0.949703116112511 0
0.3198337762312781 0.05464850644860497 0
0.253202993407605 0.05522811239422931 0
0.447230806888804 0.07400106622623925 0
0.03767277732553864 0.8168052453825531 0
0.04569522088811478 0.1055715361748333 0
0.4678666129934642 0.204358426072709 0
0.04593598689552647 0.3829694546007157 0
0.05417542942868547 0.4702951654396223 0
0.4618070590680051 0.8642762175700526 0
0.457211476166532 0.8904636040575014 0
0.4578090873210795 0.1397175462506974 0
0.4624033251643722 0.1147263795959592 0
0.04551506077004538 0.4945481611074511 0
0.362701810574107 0.3276149830740845 0
0.337951401059178 0.3208830513460249 0
0.3575760300203732 0.3037916781483891 0
0.3324690309377667 0.2970827542228954 0
0.3144366514129676 0.3144562007682646 0
0.3081104560217225 0.2909020034483952 0
0.2917863167415029 0.3078928366864898 0
0.3258652747177255 0.2732683105526402 0
0.2972534313847264 0.3316596433663893 0
0.2848016356979128 0.2849430061727677 0
0.2716890929559703 0.322912509981143 0
0.2796060662604479 0.3485297100195763 0
0.303405356300556 0.3552132394562217 0
0.2862372006235785 0.3724527148518957 0
0.2626647211180783 0.3661464287906263 0
0.2684762243498603 0.3887831263506567 0
0.2837161176102324 0.4595585637538946 0
0.2664613490266055 0.4412850231235789 0
0.2601361670967284 0.4661403799046566 0
0.2433299882093508 0.4474980931951828 0
0.2488651183572907 0.424946423652303 0
0.2324785923060093 0.4697915930762762 0
0.2518026994227582 0.4891948550429049 0
0.2285081527362835 0.495203239113721 0
0.2446186846218095 0.5122738583541093 0
0.226722415568578 0.4293797089631362 0
0.2168105756792359 0.5194539694430629 0
0.2366584428377839 0.5365127520946971 0
0.2844447214514402 0.540453726706703 0
0.2681262234633369 0.5581799249392374 0
0.2732488591290724 0.5834610622094266 0
0.2494432584909043 0.577904748945402 0
0.2580925296075032 0.6027762484562112 0
0.284636403114396 0.6105652592059174 0
0.2998922509683884 0.4103759431571935 0
0.3828799208308352 0.6894022970436241 0
0.3885112262624233 0.7139935017752603 0
0.3691569558136356 0.7076799121889479 0
0.3859007126462969 0.3112567250560406 0
0.3752318629678409 0.2877286800870676 0
0.4343854527928009 0.7105644851488213 0
0.4330337370357413 0.2859430876079693 0
0.4462310166145238 0.266156579446664 0
0.3696894381923321 0.729071178041639 0
0.4129657641225191 0.2722841963813745 0
0.4082462415856279 0.04298601817679593 0
0.3847480617646581 0.05062212256966697 0
0.3628335527334917 0.03586530161343937 0
0.4513425655821663 0.04505608472654704 0
0.3507234337212892 0.2800469973364992 0
0.3428647196935052 0.2566869885694947 0
0.3165830955069567 0.251824747647248 0
0.3336578071692173 0.232396277616184 0
0.2044116456427852 0.4970805518594188 0
0.2336478696783732 0.03947971333937844 0
0.2773929994068985 0.4871744707964749 0
0.3240629274599283 0.6368741780612912 0
0.04292714877272141 0.65429337053482 0
0.2456357925358102 0.3838827878789827 0
0.2736463074441706 0.4137219812075189 0
0.1263605040264058 0.4220042932431844 0
0.03847927939391083 0.570203270281889 0
0.04026434587533195 0.5467758750824647 0
0.2387959687036786 0.3625919193893422 0
0.23302847429497 0.4066666768938483 0
0.3697193978192239 0.2619076814480267 0
0.1336843459364457 0.121537072048893 0
0.08696176646179626 0.1388891473157919 0
0.06484096672216041 0.1471805142854927 0
0.4415042088632007 0.7357649152004203 0
0.4655911187288015 0.7393286041366709 0
0.4658285563462427 0.2595175135169608 0
0.4501683998156437 0.2433795103228154 0
0.2606203583541243 0.1434235253198154 0
0.2375573196182937 0.1519956542444869 0
0.3263860253539161 0.3639821371334526 0
0.2990433728163116 0.589619391374534 0
0.3956174961031489 0.7543832217981821 0
0.3499307641639083 0.7421199544383779 0
0.3939822398316262 0.2538970030959577 0
0.3619830139375111 0.05988770396671667 0
0.2025346210769122 0.7310845129204899 0
0.1898797236609855 0.5552356874870286 0
0.2089925086362139 0.5705066830439381 0
0.2132895218229472 0.5454899473817528 0
0.2043688878921097 0.5950843234260773 0
0.1325338180141455 0.2593911328435119 0
0.151538937694429 0.2752752448983345 0
0.1473898134061941 0.299569740760098 0
0.1241290830406219 0.3082063870009348 0
0.1199981799222686 0.3326689308365236 0
0.1389523149538064 0.3486069487982623 0
0.1348151839414461 0.3728049563826743 0
0.111541376436916 0.3814655465602751 0
0.1074367966054211 0.4059742915744089 0
0.4772049277079165 0.7865313304239502 0
0.2903119066184721 0.2225193697923069 0
0.2886471460952902 0.247327495587381 0
0.26322921052155 0.2552658664179638 0
0.400667671513056 0.8393809904690324 0
0.1409094046278679 0.2105158357805887 0
0.159969834058534 0.2263772612493291 0
0.1641620407053888 0.2019714430058083 0
0.2431303872027755 0.6233869371669944 0
0.4777699804839469 0.8117463386194301 0
0.4543132060833733 0.8236558481206193 0
0.02163782661030728 0.4875221849455821 0
0.02033463140374767 0.439472806891952 0
0.02547542968212621 0.6112195313829175 0
0.02097946725807062 0.3352316077735656 0
0.02064403018920086 0.7125121168405686 0
0.04152751685997999 0.7244755851855893 0
0.04334205251107773 0.7495429162442424 0
0.02104589663808518 0.762300043612312 0
0.02083408441294929 0.2866923151559845 0
0.02158245904590728 0.2375095925794187 0
0.04335447203960321 0.2497983831997145 0
0.0424404324576711 0.2247804049909374 0
0.04153363931936704 0.2018831440351947 0
0.0213785819198303 0.187859183118172 0
0.0421876232136435 0.1791788197769 0
0.02111424778963175 0.1641328198306518 0
0.231628047319345 0.3126129572397224 0
0.253704734032122 0.3049118338527524 0
0.2615453498568873 0.28075689945906 0
0.2405152765840709 0.2647086968340828 0
0.2443983148937717 0.2403904551199917 0
0.2880526127202577 0.02094330980051073 0
0.2899959241983746 0.9745176528476562 0
0.3072684712217147 0.1262467072225235 0
0.2357880100348874 0.9756337511142933 0
0.3374811185484026 0.9783602661165518 0
0.3637846804219159 0.979710202194028 0
0.3393705763383887 0.02166477953681717 0
0.3373801256801205 0.2067951246600474 0
0.3205572503930009 0.3384561592462549 0
0.02199527561263687 0.1137263572065249 0
0.0483539065537803 0.08019438186090921 0
0.0570677981642802 0.0561980700104765 0
0.08077534822532706 0.04897129488691609 0
0.0283812364677396 0.06218808032748119 0
0.0620567205236886 0.03300187949867839 0
0.2067687931689428 0.706931293049757 0
0.1873027166306529 0.9784743572361385 0
0.1983979458231742 0.9579001257374862 0
0.1747298453428479 0.9575406736485003 0
0.1624387568259265 0.9785062449724393 0
0.1500473764979324 0.9567404542370262 0
0.1261400472479187 0.95728567790956 0
0.1391713086280961 0.9360973307987357 0
0.1628233828820333 0.9370170991361795 0
0.1127133544086834 0.978417025417603 0
0.1007777191427738 0.9529656366666854 0
0.07425636444919392 0.9569456140008521 0
0.06249953205207792 0.9782475571624886 0
0.04648882475712884 0.9558529396603667 0
0.1866017793978872 0.0199768327167823 0
0.02121782715514214 0.88733839246145 0
0.04582177412932661 0.8750008770388248 0
0.02447319954711719 0.8359159473829463 0
0.1127861678642728 0.02086317596389553 0
0.02309711566361847 0.9371850030958822 0
0.4125745799773847 0.9784313200976827 0
0.4249907870313118 0.9567460516456727 0
0.4501469883469216 0.9574376912657994 0
0.4382153535139003 0.9356014796920181 0
0.4109872481186413 0.9314270918975629 0
0.462520345916672 0.9355791502971982 0
0.4497263692340439 0.9140506993940635 0
0.4738850575646191 0.06624788927572861 0
0.2225629913501682 0.1116544396321514 0
0.3243356867667347 0.7766680470320043 0
0.4109727551530079 0.1567753062405334 0
0.1502970183251406 0.6603994560533343 0
0.1800855247501219 0.1043681550884245 0
0.2309105386839529 0.5614758289894988 0
0.1162400547862452 0.8541796025307979 0
0.1374353792769775 0.73250499080522 0
0.06944110286918798 0.8714043485431591 0
0.1983788104313956 0.7553508016936378 0
0.3876800407436022 0.1652761470511083 0
0.3263919931585227 0.1420968986563604 0
0.1627972343457848 0.8369520885577471 0
0.2322670422559967 0.8111232905715431 0
0.2242104361663473 0.8599042461174234 0
0.2472682915242706 0.8511752370332356 0
0.1290618569934357 0.532182715614264 0
0.1468609726319409 0.04475181886050295 0
0.2445338655227333 0.7383807182075317 0
0.2798169217342371 0.6577958382015052 0
0.2825352037828902 0.6353491083785886 0
0.09756265362981686 0.5893011177889882 0
0.399902235981343 0.9570333470773649 0
0.3050498576603541 0.7610527828180088 0
0.4418465889995268 0.09883090502918424 0
0.2116772574813064 0.0467400712990122 0
0.07676589168346165 0.2107170796390726 0
0.08915159863857938 0.6377529040578016 0
0.1479475157023643 0.7968359459215169 0
0.08654061480688618 0.7742822682556583 0
0.2730794370055131 0.07027636571971607 0
0.1832746093921923 0.2175845907771786 0
0.3771376593038204 0.1004694513910706 0
0.1746266364524374 0.9008320989542025 0
0.3890248379910368 0.9134013749313019 0
0.0656599820248974 0.2619750859375368 0
0.2117238485196662 0.9366974812365909 0
0.1669777060501693 0.8125819291603688 0
0.1791358676344298 0.2418903032965705 0
0.2486975864027582 0.7142990728169754 0
0.3269859987905303 0.889766092685787 0
0.05856533911449119 0.4467593789061728 0
0.2551482748017729 0.3437673294640561 0
0.2840356731441419 0.1347686387983754 0
0.2552616291357425 0.8024490951114038 0
0.05982479086791148 0.3105337068616513 0
0.05015802242729525 0.358534503574893 0
0.1333732499427243 0.5083665651421455 0
0.1557419861922067 0.2506807920675693 0
0.1396442610724837 0.5964144443258895 0
0.3583628551891652 0.8323286120310039 0
0.06387846633711108 0.5347745396015818 0
0.2931543359424725 0.8338153510286708 0
0.173380874351674 0.6518510408016782 0
0.3811696890768393 0.07578765881084787 0
0.3038261509557854 0.8983650568098909 0
0.3774958641719184 0.848050982660957 0
0.454751524515416 0.773454551636624 0
0.4066141062770411 0.1811514899714124 0
0.06604370539254686 0.7601809610275325 0
0.1708250500495367 0.2904370366636611 0
0.3031780372718624 0.1506346574475312 0
0.02244065096862019 0.3896517367335242 0
0.2569630604053633 0.1677635981198802 0
0.3006622912314419 0.2690327343859585 0
0.3129794438886839 0.7126140196471139 0
0.1165250416002655 0.6049806631525956 0
0.2752569278723481 0.0435059391068669 0
0.1666170731126973 0.3147097012926055 0
0.4534874384192683 0.1641090152041231 0
0.2511941950872661 0.8267916581236925 0
0.2256523087581042 0.7226928930075323 0
0.3388834714495675 0.06902813373397471 0
0.2337367977542539 0.1763017227929157 0
0.1437793445536612 0.8211793654927485 0
0.4048584294718285 0.815076009648297 0
0.1431271955500149 0.3237708149036795 0
0.4301313287155645 0.1728686753706506 0
0.0934066133959463 0.613585257522112 0
0.1205242272363975 0.8298089302524724 0
0.4253606447716548 0.8310172365766623 0
0.2701680517600618 0.8424261169616064 0
0.1992985305270923 0.120087382353407 0
0.1583801290554569 0.3631954898150996 0
0.09722760849393491 0.8384492278089328 0
0.1541966833110033 0.3874067422669045 0
0.2110196590379591 0.6829961489511422 0
0.07015448337342689 0.6221664090289015 0
0.3308516480641739 0.7277361749535901 0
0.1569202741911631 0.1129268525767566 0
0.07515547402254208 0.8475473724943445 0
0.04690968976636786 0.6307859832302611 0
0.1304559392405406 0.3968540275388989 0
0.1298405992948021 0.1458984715944859 0
0.2661176796865731 0.8668950453372172 0
0.1880058433089187 0.6913661733685994 0
0.2146099323848199 0.160566817379422 0
0.1762574021509556 0.128744191466495 0
0.2619822384363818 0.8913697823221064 0
0.1103203812503677 0.1302001793002834 0
0.1691492392790588 0.6758437167512507 0
0.2187281834517674 0.1362004123371006 0
0.1458847503794425 0.4361136923650588 0
0.2808640264975777 0.9071333316726191 0
0.08433478527103797 0.163204192528037 0
0.2257401451790238 0.586124164822557 0
0.1414148709954015 0.4607787271640373 0
0.337350027625141 0.9518997457392564 0
0.1183650204368036 0.4698514972132286 0
0.3472086396893172 0.7670882293828603 0
0.09928588449763823 0.06607965200219235 0
0.2767730713363626 0.9315384321077841 0
0.2611881588753877 0.5311562090304351 0
0.1460340057581269 0.6842932333146883 0
0.141752586369289 0.7084470652817556 0
0.1185106144555928 0.717268437226098 0
0.4338136171957789 0.8957727971577376 0
0.09966104420775035 0.7016214554300997 0
0.342142035507475 0.04557013492205564 0
0.3571408983830403 0.221816214031396 0
0.07631387114621022 0.7100200916498431 0
0.04383126134879545 0.1303959705388772 0
0.3277288474120978 0.7519235128806401 0
0.03729131316016998 0.9798503535513174 0
0.4617320826242252 0.9794702469277774 0
0.4621419078439979 0.02060038015668009 0
0.04184400135455821 0.8999951967856639 0
0.02111676681050023 0.6638057259780323 0
0.2713053817100365 0.9554232867454036 0
0.04057277295059011 0.02022465696480735 0
0.04251911368119285 0.2740424386177126 0
0.04099302709087768 0.8526930769401371 0
0.1145974747142091 0.4934550673892095 0
0.413507468805747 0.02037134162371701 0
0.09164642857082234 0.5021553445417034 0
0.04253679624530354 0.7732242886888447 0
0.0675626173085544 0.5105015764290627 0
0.04367317480624594 0.5216761455700714 0
0.4802953327812334 0.1336060672281456 0
0.08176939330194491 0.9346747671976492 0
0.04401680255843204 0.4078057236367677 0
0.2130434607428706 0.4805508139744857 0
0.1038757396619205 0.04314290067101312 0
0.4801681981394191 0.8850501648772875 0
0.4797406348714205 0.1850902497317892 0
0.04453018411581561 0.9347939290335394 0
0.01846609788261336 0.5375 0
0.1254123480261587 0.917796289222907 0
0.1625 0.01829517888746829 0
0.2539303833964204 0.4036001991966619 0
0.3014468176393089 0.03953907961447206 0
0.351747111300414 0.716742174700111 0
0.04058164241328341 0.6778957750547094 0
0.1866705446479181 0.938158076276523 0
0.2658725957046847 0.6229374566270263 0
0.04301026004829464 0.1553899987959155 0
0.3929808045919595 0.2760577788427571 0
0.04124369488406476 0.2976188531338808 0
0.3750045329796396 0.9601230935577434 0
0.4104943767105482 0.7211028207066973 0
0.2111041779125463 0.4097110774207378 0
0.0644433753964869 0.1721780677007954 0
0.2515815175715372 0.9597401805528936 0
0.2385500919735951 0.01840650591172788 0
0.4626759295979285 0.2249115484752703 0
0.484633317082424 0.1131530476333819 0
0.04063114665488732 0.4306766281879195 0
0.4289062229810238 0.916190603999687 0
0.2182165511242383 0.3600615916872759 0
0.4805888916875157 0.7204117493104873 0
0.4806364219925582 0.2793932508088919 0
0.4832395309550293 0.9375000000000007 0
0.4818957557908599 0.8607610088810685 0
0.04161966834187089 0.7957433625410362 0
0.0419458326401819 0.04182253736028868 0
0.2485420406635906 0.3242337521888705 0
0.2882556159721846 0.3931484544402649 0
0.2068452726564581 0.4345662934201875 0
0.03938789751354435 0.7012692402751555 0
0.01728536891982724 0.5618447777516974 0
0.3137822887044405 0.9601644930778196 0
0.03980911448433014 0.3212584866712769 0
0.01705955899285946 0.811859795250593 0
0.3074834520100655 0.233689049571939 0
0.06138018550509425 0.9403077008545645 0
0.1249993023387777 0.03706196700706499 0
0.3625 0.01537593905686818 0
0.4282445097625153 0.03901713900919157 0
0.4815651061721306 0.2187814419867078 0
0.2732603377133311 0.3002403351623152 0
0.06046967222340865 0.1942893981254751 0
0.2798972571812495 0.2664900110914687 0
0.3561209744059601 0.2418981273746625 0
0.01830127018922151 0.9816987298107782 0
0.4816987298107779 0.9816987298107782 0
0.4816987298107783 0.01830127018922195 0
0.03792357673502394 0.4528575796618189 0
0.01817398161387618 0.0181739816138764 0
0.2230530320318565 0.4484062109463723 0
0.356350518118728 0.6921537984142627 0
0.2631994565966542 0.5055482317229845 0
0.3024975645432862 0.6306543387655283 0
0.4602763992642179 0.08934292120825105 0
0.1190591272806486 0.9387421377142136 0
0.2495425140596066 0.5521605746252479 0
0.1741609249769694 0.920374409699107 0
0.4544065923331849 0.754273681348923 0
0.05810707768315637 0.7138110787984466 0
0.3900135528746225 0.7347194751141868 0
0.03851222580407079 0.5913387056871898 0
0.3917273824141703 0.2940565016027814 0
0.196039149736256 0.4804656672874711 0
0.03884496042707447 0.344028577168996 0
0.1950300637331991 0.03781184698548878 0
0.2386226728320088 0.6011252368442811 0
0.3250000000000001 0.03512039610830286 0
0.06255126224884625 0.01410092415828912 0
0.4613587704041453 0.8440086546725714 0
0.353901665247795 0.9626272443499347 0
0.03515721786547055 0.4744879294426761 0
0.4845706795297184 0.739066390411422 0
0.4847495933216122 0.2607095999422825 0
0.2176721396975956 0.9607326073277551 0
0.4305752201895657 0.2375335035828208 0
0.193446313833037 0.5124362475965479 0
0.03863873191678846 0.9184599992042963 0
0.05769172224178243 0.2132400312448356 0
0.4267311618864693 0.726211022922212 0
0.4275549412635966 0.2600599013713788 0
0.2526767657216599 0.03639921613123343 0
0.05846680611209673 0.8565557417230445 0
$EndNodes
$Elements
13 1844 1 1844
0 1 15 1
1 1 
0 2 15 1
2 2 
0 3 15 1
3 3 
0 4 15 1
4 4 
0 5 15 1
5 5 
0 6 15 1
6 6 
1 1 1 40
7 1 7 
8 7 8 
9 8 9 
10 9 10 
11 10 11 
12 11 12 
13 12 13 
14 13 14 
15 14 15 
16 15 16 
17 16 17 
18 17 18 
19 18 19 
20 19 20 
21 20 21 
22 21 22 
23 22 23 
24 23 24 
25 24 25 
26 25 26 
27 26 27 
28 27 28 
29 28 29 
30 29 30 
31 30 31 
32 31 32 
33 32 33 
34 33 34 
35 34 35 
36 35 36 
37 36 37 
38 37 38 
39 38 39 
40 39 40 
41 40 41 
42 41 42 
43 42 43 
44 43 44 
45 44 45 
46 45 2 
1 2 1 20
47 3 46 
48 46 47 
49 47 48 
50 48 49 
51 49 50 
52 50 51 
53 51 52 
54 52 53 
55 53 54 
56 54 55 
57 55 56 
58 56 57 
59 57 58 
60 58 59 
61 59 60 
62 60 61 
63 61 62 
64 62 63 
65 63 64 
66 64 1 
1 3 1 12
67 4 65 
68 65 66 
69 66 67 
70 67 68 
71 68 69 
72 69 70 
73 70 71 
74 71 72 
75 72 73 
76 73 74 
77 74 75 
78 75 3 
1 4 1 26
79 4 76 
80 76 77 
81 77 78 
82 78 79 
83 79 80 
84 80 81 
85 81 82 
86 82 83 
87 83 84 
88 84 85 
89 85 86 
90 86 87 
91 87 88 
92 88 89 
93 89 90 
94 90 91 
95 91 92 
96 92 93 
97 93 94 
98 94 95 
99 95 96 
100 96 97 
101 97 98 
102 98 99 
103 99 100 
104 100 5 
1 5 1 12
105 6 101 
106 101 102 
107 102 103 
108 103 104 
109 104 105 
110 105 106 
111 106 107 
112 107 108 
113 108 109 
114 109 110 
115 110 111 
116 111 5 
1 6 1 20
117 2 112 
118 112 113 
119 113 114 
120 114 115 
121 115 116 
122 116 117 
123 117 118 
124 118 119 
125 119 120 
126 120 121 
127 121 122 
128 122 123 
129 123 124 
130 124 125 
131 125 126 
132 126 127 
133 127 128 
134 128 129 
135 129 130 
136 130 6 
2 1 2 1708
137 759 834 497 
138 176 681 675 
139 625 770 436 
140 686 724 367 
141 157 891 553 
142 681 835 675 
143 152 838 707 
144 689 892 509 
145 568 689 509 
146 160 688 516 
147 522 558 520 
148 494 632 631 
149 707 838 501 
150 44 660 43 
151 170 657 511 
152 522 559 558 
153 484 679 510 
154 328 583 578 
155 156 533 532 
156 4 859 76 
157 100 860 5 
158 546 604 327 
159 489 724 686 
160 484 821 679 
161 492 870 648 
162 175 815 568 
163 553 596 157 
164 145 834 759 
165 511 656 170 
166 553 891 710 
167 532 595 156 
168 636 637 408 
169 505 781 628 
170 328 858 583 
171 615 624 443 
172 163 736 513 
173 684 687 180 
174 494 749 632 
175 159 892 689 
176 571 754 617 
177 555 889 182 
178 65 859 4 
179 5 860 111 
180 827 836 143 
181 541 831 320 
182 320 888 541 
183 565 566 155 
184 143 626 519 
185 443 625 436 
186 568 815 181 
187 547 604 546 
188 648 818 492 
189 617 873 571 
190 502 770 625 
191 563 898 384 
192 516 833 160 
193 327 914 546 
194 651 870 797 
195 181 689 568 
196 582 836 827 
197 177 660 44 
198 512 834 108 
199 564 599 404 
200 624 625 443 
201 108 878 512 
202 513 752 163 
203 474 657 475 
204 540 579 537 
205 557 889 555 
206 628 781 164 
207 538 575 542 
208 499 576 184 
209 749 825 632 
210 384 598 563 
211 648 870 140 
212 140 870 651 
213 408 725 636 
214 184 576 132 
215 536 575 538 
216 87 548 158 
217 159 855 518 
218 43 660 170 
219 549 802 548 
220 520 558 96 
221 582 869 836 
222 80 555 182 
223 518 892 159 
224 511 811 656 
225 581 869 582 
226 511 657 474 
227 566 567 155 
228 678 698 444 
229 384 898 597 
230 404 918 564 
231 443 747 615 
232 687 861 180 
233 483 825 749 
234 568 877 175 
235 515 833 516 
236 695 795 603 
237 591 592 162 
238 145 759 517 
239 537 579 142 
240 549 894 802 
241 519 827 143 
242 497 834 512 
243 313 732 583 
244 515 862 833 
245 513 830 752 
246 672 829 403 
247 527 569 523 
248 578 584 328 
249 570 585 569 
250 687 688 160 
251 367 857 686 
252 656 811 149 
253 517 828 145 
254 657 660 658 
255 863 872 134 
256 444 816 678 
257 725 820 636 
258 548 802 158 
259 567 808 653 
260 510 872 863 
261 363 670 669 
262 486 898 849 
263 752 830 144 
264 657 658 475 
265 141 596 550 
266 155 823 565 
267 595 655 131 
268 546 914 573 
269 660 864 658 
270 547 695 604 
271 653 876 567 
272 597 898 486 
273 659 661 172 
274 647 757 169 
275 527 570 569 
276 172 832 659 
277 592 854 162 
278 628 899 505 
279 564 918 561 
280 561 918 562 
281 551 795 695 
282 313 865 732 
283 523 569 522 
284 615 747 161 
285 675 813 176 
286 457 820 725 
287 284 654 572 
288 592 918 913 
289 338 889 841 
290 182 183 132 
291 536 537 142 
292 142 579 554 
293 180 814 684 
294 686 712 489 
295 588 851 845 
296 637 916 408 
297 177 864 660 
298 562 918 592 
299 168 818 648 
300 150 564 561 
301 146 625 624 
302 650 912 506 
303 561 562 179 
304 150 846 564 
305 518 828 517 
306 570 882 585 
307 170 660 657 
308 574 715 136 
309 164 781 577 
310 522 569 559 
311 550 596 553 
312 604 695 603 
313 572 873 284 
314 560 849 151 
315 592 913 478 
316 532 655 595 
317 178 589 560 
318 506 852 650 
319 830 856 144 
320 552 844 623 
321 486 589 446 
322 623 904 552 
323 86 548 87 
324 688 806 516 
325 150 900 846 
326 95 520 96 
327 79 555 80 
328 851 880 640 
329 132 576 82 
330 94 595 131 
331 90 536 142 
332 85 596 141 
333 142 554 91 
334 158 575 88 
335 89 575 536 
336 83 576 157 
337 157 596 84 
338 156 595 93 
339 81 182 132 
340 92 554 156 
341 673 829 672 
342 447 816 444 
343 97 558 150 
344 631 897 494 
345 78 560 151 
346 150 561 98 
347 796 798 477 
348 518 855 828 
349 841 889 557 
350 178 560 77 
351 99 561 179 
352 290 798 796 
353 845 851 640 
354 691 812 799 
355 478 854 592 
356 403 893 672 
357 564 846 599 
358 580 782 285 
359 640 880 638 
360 144 856 627 
361 156 866 533 
362 540 839 579 
363 577 817 164 
364 580 792 477 
365 530 865 643 
366 566 600 567 
367 792 796 477 
368 658 659 475 
369 680 832 172 
370 611 766 279 
371 306 809 654 
372 654 809 572 
373 669 837 363 
374 643 879 530 
375 819 906 661 
376 573 914 241 
377 372 599 585 
378 384 799 598 
379 527 571 570 
380 611 773 612 
381 614 782 580 
382 163 902 736 
383 285 782 775 
384 136 853 574 
385 183 184 132 
386 773 775 612 
387 536 538 537 
388 285 792 580 
389 862 907 146 
390 586 779 291 
391 607 738 277 
392 587 789 322 
393 569 585 559 
394 610 766 611 
395 775 782 612 
396 799 812 598 
397 726 912 664 
398 562 591 179 
399 587 794 588 
400 279 773 611 
401 571 873 572 
402 607 750 608 
403 757 919 169 
404 593 733 282 
405 473 789 587 
406 279 766 758 
407 644 645 618 
408 322 789 783 
409 469 779 586 
410 662 761 601 
411 750 758 608 
412 758 766 608 
413 384 597 343 
414 449 614 452 
415 593 753 594 
416 645 646 618 
417 353 761 662 
418 382 610 410 
419 606 738 607 
420 566 744 600 
421 610 611 410 
422 658 661 659 
423 452 614 580 
424 600 744 374 
425 710 844 553 
426 598 841 563 
427 414 733 593 
428 277 750 607 
429 149 641 40 
430 160 861 687 
431 227 605 342 
432 432 699 601 
433 371 599 372 
434 277 738 728 
435 229 605 227 
436 67 615 161 
437 649 751 733 
438 690 791 772 
439 273 622 278 
440 728 738 621 
441 602 603 233 
442 173 673 672 
443 15 633 134 
444 753 763 594 
445 178 590 589 
446 619 746 479 
447 376 486 446 
448 609 610 378 
449 613 614 402 
450 602 604 603 
451 352 746 619 
452 521 655 524 
453 40 641 39 
454 402 614 449 
455 278 622 287 
456 535 866 579 
457 606 607 411 
458 378 610 382 
459 284 616 270 
460 291 783 586 
461 360 609 378 
462 343 597 376 
463 234 602 233 
464 356 606 411 
465 188 709 186 
466 400 613 402 
467 63 674 62 
468 404 599 371 
469 371 372 331 
470 783 789 586 
471 131 655 521 
472 173 672 671 
473 282 753 593 
474 223 623 392 
475 68 624 615 
476 571 572 570 
477 759 767 419 
478 110 162 109 
479 67 161 66 
480 61 671 60 
481 622 721 621 
482 186 709 499 
483 376 597 486 
484 347 646 266 
485 165 626 27 
486 144 627 29 
487 611 612 410 
488 317 384 343 
489 133 637 635 
490 733 751 282 
491 274 654 284 
492 255 642 313 
493 147 628 22 
494 39 639 38 
495 281 701 294 
496 287 620 305 
497 39 641 639 
498 203 699 199 
499 287 622 620 
500 233 605 229 
501 183 185 184 
502 635 637 636 
503 431 705 704 
504 137 629 33 
505 239 327 237 
506 266 646 263 
507 166 634 35 
508 133 635 37 
509 138 630 18 
510 618 646 347 
511 16 633 15 
512 215 704 301 
513 538 539 537 
514 607 608 411 
515 310 331 306 
516 327 604 602 
517 452 477 453 
518 245 320 243 
519 199 699 432 
520 342 623 225 
521 202 713 691 
522 53 648 140 
523 139 647 123 
524 616 617 347 
525 721 728 621 
526 350 606 356 
527 289 643 642 
528 173 671 61 
529 62 674 173 
530 528 532 531 
531 251 328 249 
532 263 646 261 
533 153 667 666 
534 270 616 268 
535 431 704 215 
536 68 615 67 
537 339 371 331 
538 449 452 451 
539 225 623 223 
540 382 410 400 
541 237 602 234 
542 452 580 477 
543 275 701 281 
544 289 642 257 
545 153 666 59 
546 397 404 371 
547 694 787 779 
548 153 668 667 
549 603 605 233 
550 268 347 266 
551 438 601 387 
552 124 653 139 
553 630 631 167 
554 356 411 360 
555 601 699 387 
556 348 430 350 
557 635 636 166 
558 362 649 412 
559 414 593 439 
560 223 392 221 
561 255 313 253 
562 261 646 645 
563 390 438 387 
564 430 606 350 
565 524 655 528 
566 50 652 154 
567 28 627 165 
568 26 626 143 
569 268 616 347 
570 532 533 531 
571 322 794 587 
572 452 453 451 
573 298 317 307 
574 21 628 164 
575 617 618 347 
576 227 342 225 
577 306 654 280 
578 663 664 135 
579 257 642 255 
580 327 602 237 
581 668 669 667 
582 575 890 542 
583 32 629 163 
584 146 624 69 
585 620 621 430 
586 208 691 298 
587 238 239 237 
588 439 690 415 
589 17 630 167 
590 36 635 166 
591 34 634 137 
592 60 671 153 
593 593 594 439 
594 317 343 318 
595 274 284 270 
596 305 620 348 
597 30 144 29 
598 28 165 27 
599 23 147 22 
600 26 143 25 
601 669 670 667 
602 135 650 56 
603 240 241 239 
604 133 638 637 
605 631 632 167 
606 32 163 31 
607 21 164 20 
608 352 619 388 
609 337 386 365 
610 292 306 280 
611 411 609 360 
612 667 670 665 
613 59 666 58 
614 242 243 241 
615 168 648 54 
616 122 647 169 
617 392 710 709 
618 218 387 211 
619 15 134 14 
620 17 167 16 
621 36 166 35 
622 38 133 37 
623 124 139 123 
624 53 140 52 
625 19 138 18 
626 34 137 33 
627 69 624 68 
628 140 651 52 
629 231 233 229 
630 173 674 673 
631 418 730 346 
632 351 649 362 
633 481 706 425 
634 236 237 234 
635 259 289 257 
636 348 350 349 
637 343 376 344 
638 376 446 409 
639 350 356 355 
640 683 686 685 
641 38 639 133 
642 57 663 135 
643 267 268 266 
644 269 270 268 
645 663 665 664 
646 244 245 243 
647 469 586 471 
648 280 654 274 
649 412 733 414 
650 348 620 430 
651 410 613 400 
652 356 360 359 
653 12 679 148 
654 427 481 425 
655 683 685 684 
656 315 696 485 
657 289 645 644 
658 27 626 26 
659 29 627 28 
660 362 412 406 
661 198 703 200 
662 22 628 21 
663 125 653 124 
664 360 378 377 
665 55 650 168 
666 167 633 16 
667 390 441 438 
668 122 169 121 
669 55 168 54 
670 412 414 413 
671 211 699 203 
672 305 348 329 
673 419 692 373 
674 709 710 499 
675 33 629 32 
676 626 909 519 
677 37 635 36 
678 35 634 34 
679 18 630 17 
680 246 247 245 
681 221 709 188 
682 193 708 191 
683 148 678 677 
684 651 652 51 
685 528 655 532 
686 54 648 53 
687 123 647 122 
688 682 683 174 
689 378 382 381 
690 683 712 686 
691 414 439 415 
692 294 701 351 
693 202 691 208 
694 382 400 399 
695 208 298 212 
696 216 702 207 
697 58 663 57 
698 473 587 476 
699 51 652 50 
700 13 679 12 
701 218 390 387 
702 438 662 601 
703 107 145 106 
704 70 146 69 
705 136 676 119 
706 248 249 247 
707 430 738 606 
708 524 528 526 
709 265 266 263 
710 692 700 334 
711 491 745 418 
712 289 644 643 
713 170 656 42 
714 515 907 862 
715 415 690 417 
716 683 684 174 
717 528 531 530 
718 400 402 401 
719 463 694 464 
720 250 251 249 
721 52 651 51 
722 57 135 56 
723 120 136 119 
724 417 463 462 
725 301 704 337 
726 10 677 171 
727 402 449 448 
728 620 622 621 
729 292 310 306 
730 608 609 411 
731 41 149 40 
732 373 692 334 
733 674 675 673 
734 449 451 450 
735 423 711 424 
736 464 694 467 
737 41 656 149 
738 685 688 687 
739 56 650 55 
740 12 148 11 
741 119 676 118 
742 467 469 468 
743 453 455 454 
744 259 645 289 
745 671 672 668 
746 148 677 11 
747 661 864 819 
748 252 253 251 
749 464 467 466 
750 704 705 386 
751 231 234 233 
752 407 418 346 
753 152 680 116 
754 538 542 541 
755 587 588 476 
756 154 682 49 
757 417 690 463 
758 200 703 206 
759 43 170 42 
760 550 553 552 
761 58 666 663 
762 348 349 329 
763 42 656 41 
764 10 171 9 
765 8 681 176 
766 533 535 534 
767 127 155 126 
768 50 154 49 
769 117 152 116 
770 11 677 10 
771 115 680 172 
772 60 153 59 
773 171 681 9 
774 236 238 237 
775 469 471 470 
776 437 742 214 
777 159 689 103 
778 48 682 174 
779 490 491 418 
780 116 680 115 
781 115 172 114 
782 49 682 48 
783 62 173 61 
784 238 240 239 
785 73 160 72 
786 104 159 103 
787 330 696 315 
788 254 255 253 
789 396 419 373 
790 102 689 181 
791 103 689 102 
792 186 499 184 
793 315 485 303 
794 9 681 8 
795 542 544 543 
796 129 175 128 
797 48 174 47 
798 45 177 44 
799 153 671 668 
800 8 176 7 
801 350 355 349 
802 75 180 74 
803 102 181 101 
804 612 613 410 
805 303 702 216 
806 666 667 665 
807 368 369 330 
808 412 413 406 
809 267 269 268 
810 685 687 684 
811 312 352 341 
812 240 242 241 
813 463 464 462 
814 206 431 215 
815 265 267 266 
816 310 339 331 
817 639 640 638 
818 471 473 472 
819 387 699 211 
820 356 359 355 
821 351 362 361 
822 197 708 193 
823 269 271 270 
824 242 244 243 
825 601 761 432 
826 294 351 316 
827 428 504 503 
828 369 696 330 
829 632 633 167 
830 445 566 565 
831 210 211 203 
832 199 432 197 
833 467 468 466 
834 544 547 546 
835 424 711 428 
836 222 223 221 
837 414 415 413 
838 295 437 214 
839 273 721 622 
840 360 377 359 
841 368 698 369 
842 278 287 286 
843 469 470 468 
844 309 693 357 
845 154 712 682 
846 244 246 245 
847 473 476 474 
848 271 274 270 
849 298 307 212 
850 337 365 364 
851 365 395 394 
852 256 257 255 
853 190 433 192 
854 218 697 390 
855 663 666 665 
856 309 357 324 
857 194 221 188 
858 337 704 386 
859 378 381 377 
860 352 388 366 
861 133 639 638 
862 217 218 211 
863 407 490 418 
864 351 701 649 
865 287 305 304 
866 30 752 144 
867 301 337 336 
868 246 248 247 
869 362 406 405 
870 471 472 470 
871 357 442 358 
872 224 225 223 
873 232 693 309 
874 248 250 249 
875 317 318 307 
876 697 805 804 
877 482 483 435 
878 163 752 31 
879 382 399 381 
880 485 702 303 
881 250 252 251 
882 473 474 472 
883 453 454 451 
884 375 493 333 
885 528 530 526 
886 339 397 371 
887 345 403 370 
888 400 401 399 
889 325 333 299 
890 206 703 431 
891 300 389 326 
892 639 641 640 
893 305 329 321 
894 352 366 341 
895 476 511 474 
896 226 227 225 
897 539 540 537 
898 464 466 465 
899 252 254 253 
900 402 448 401 
901 490 492 491 
902 195 202 201 
903 533 534 531 
904 740 746 220 
905 370 447 444 
906 362 405 361 
907 392 709 221 
908 351 361 316 
909 261 645 259 
910 449 450 448 
911 417 462 461 
912 254 256 255 
913 283 288 276 
914 287 304 286 
915 370 444 368 
916 498 509 421 
917 474 475 472 
918 185 186 184 
919 415 417 416 
920 444 698 368 
921 210 217 211 
922 396 517 419 
923 335 420 385 
924 498 568 509 
925 258 259 257 
926 527 754 571 
927 483 719 435 
928 228 229 227 
929 432 708 197 
930 464 465 462 
931 470 495 468 
932 455 456 454 
933 340 346 311 
934 388 502 393 
935 445 565 498 
936 314 363 319 
937 578 839 584 
938 420 445 421 
939 319 330 315 
940 538 541 539 
941 81 132 82 
942 94 131 95 
943 682 712 683 
944 391 407 346 
945 445 498 421 
946 365 394 364 
947 260 261 259 
948 395 500 394 
949 345 368 330 
950 345 370 368 
951 461 508 416 
952 305 321 304 
953 337 364 336 
954 302 303 216 
955 333 697 299 
956 374 744 722 
957 428 711 504 
958 183 338 185 
959 295 487 437 
960 504 505 503 
961 235 236 234 
962 459 460 379 
963 262 263 261 
964 329 383 321 
965 406 458 405 
966 466 501 465 
967 722 744 420 
968 321 322 304 
969 264 265 263 
970 355 408 349 
971 458 507 405 
972 281 294 293 
973 497 767 759 
974 319 345 330 
975 420 421 385 
976 391 489 488 
977 230 231 229 
978 535 578 534 
979 314 315 303 
980 515 516 393 
981 90 142 91 
982 85 141 86 
983 213 214 209 
984 325 375 333 
985 256 258 257 
986 292 700 310 
987 415 416 413 
988 462 715 461 
989 194 222 221 
990 424 425 297 
991 389 434 326 
992 417 461 416 
993 542 543 541 
994 366 367 341 
995 217 299 218 
996 200 206 204 
997 609 766 610 
998 314 319 315 
999 357 358 324 
1000 479 746 740 
1001 468 707 466 
1002 82 576 83 
1003 278 286 283 
1004 312 746 352 
1005 294 316 296 
1006 434 435 326 
1007 87 158 88 
1008 426 427 425 
1009 375 494 493 
1010 236 706 238 
1011 89 536 90 
1012 544 546 543 
1013 299 697 218 
1014 361 374 316 
1015 461 574 508 
1016 385 396 373 
1017 217 300 299 
1018 484 510 482 
1019 206 215 207 
1020 222 224 223 
1021 296 334 293 
1022 84 596 85 
1023 335 385 373 
1024 649 733 412 
1025 273 278 276 
1026 388 393 366 
1027 88 575 89 
1028 264 273 272 
1029 433 713 192 
1030 260 262 261 
1031 286 291 283 
1032 93 595 94 
1033 232 743 693 
1034 258 260 259 
1035 278 283 276 
1036 219 295 214 
1037 262 264 263 
1038 300 326 325 
1039 264 272 265 
1040 500 506 394 
1041 262 721 264 
1042 215 301 216 
1043 275 280 274 
1044 581 582 429 
1045 335 373 334 
1046 196 197 193 
1047 187 190 189 
1048 440 484 482 
1049 91 554 92 
1050 301 336 302 
1051 440 482 435 
1052 202 205 201 
1053 312 341 340 
1054 391 488 407 
1055 92 156 93 
1056 83 157 84 
1057 502 515 393 
1058 269 282 271 
1059 202 208 205 
1060 340 391 346 
1061 364 422 336 
1062 445 744 566 
1063 301 302 216 
1064 454 731 451 
1065 521 524 523 
1066 271 275 274 
1067 396 518 517 
1068 204 210 203 
1069 377 457 359 
1070 434 440 435 
1071 296 335 334 
1072 294 296 293 
1073 215 216 207 
1074 302 314 303 
1075 524 526 525 
1076 195 713 202 
1077 300 325 299 
1078 281 292 280 
1079 466 707 501 
1080 465 715 462 
1081 273 276 272 
1082 200 203 199 
1083 224 226 225 
1084 562 592 591 
1085 220 312 311 
1086 258 277 260 
1087 312 340 311 
1088 281 293 292 
1089 206 207 204 
1090 231 235 234 
1091 495 707 468 
1092 198 199 197 
1093 226 228 227 
1094 431 760 705 
1095 343 344 318 
1096 534 732 531 
1097 461 715 574 
1098 481 737 706 
1099 190 192 191 
1100 380 480 459 
1101 213 219 214 
1102 213 220 219 
1103 545 584 540 
1104 192 195 193 
1105 141 548 86 
1106 329 716 383 
1107 195 201 196 
1108 200 204 203 
1109 300 718 389 
1110 459 577 460 
1111 275 281 280 
1112 399 496 381 
1113 252 279 254 
1114 349 716 329 
1115 509 714 421 
1116 334 700 293 
1117 80 182 81 
1118 309 324 323 
1119 293 700 292 
1120 418 745 730 
1121 240 290 242 
1122 195 196 193 
1123 228 230 229 
1124 436 770 765 
1125 358 380 379 
1126 198 200 199 
1127 421 714 385 
1128 205 354 201 
1129 196 198 197 
1130 424 428 426 
1131 246 285 248 
1132 456 519 514 
1133 220 311 219 
1134 428 503 429 
1135 621 738 430 
1136 192 193 191 
1137 531 732 530 
1138 358 379 324 
1139 499 891 576 
1140 550 552 551 
1141 451 731 450 
1142 189 194 188 
1143 448 513 401 
1144 210 718 217 
1145 406 720 458 
1146 190 191 189 
1147 141 550 549 
1148 235 423 297 
1149 208 212 209 
1150 212 213 209 
1151 380 459 379 
1152 385 714 396 
1153 213 740 220 
1154 235 297 236 
1155 424 426 425 
1156 335 722 420 
1157 408 716 349 
1158 578 583 534 
1159 194 353 222 
1160 396 714 518 
1161 232 309 308 
1162 185 187 186 
1163 224 332 226 
1164 264 721 273 
1165 413 720 406 
1166 508 720 416 
1167 208 209 205 
1168 324 717 323 
1169 367 724 341 
1170 187 188 186 
1171 456 514 454 
1172 228 232 230 
1173 187 189 188 
1174 701 751 649 
1175 556 557 555 
1176 309 323 308 
1177 131 520 95 
1178 425 706 297 
1179 525 527 523 
1180 346 730 311 
1181 192 713 195 
1182 391 724 489 
1183 435 719 326 
1184 526 529 525 
1185 460 717 379 
1186 230 739 231 
1187 514 731 454 
1188 428 429 426 
1189 374 722 316 
1190 359 725 355 
1191 503 581 429 
1192 217 718 300 
1193 539 545 540 
1194 583 732 534 
1195 423 424 297 
1196 374 762 600 
1197 318 479 307 
1198 702 727 207 
1199 297 706 236 
1200 376 409 344 
1201 316 722 296 
1202 398 478 397 
1203 96 558 97 
1204 341 724 340 
1205 355 725 408 
1206 326 719 325 
1207 416 720 413 
1208 314 723 363 
1209 232 308 230 
1210 296 722 335 
1211 546 573 543 
1212 524 525 523 
1213 336 723 302 
1214 325 719 375 
1215 340 724 391 
1216 394 726 364 
1217 422 723 336 
1218 381 735 377 
1219 497 512 478 
1220 302 723 314 
1221 219 730 295 
1222 506 726 394 
1223 141 549 548 
1224 379 717 324 
1225 204 727 210 
1226 550 551 549 
1227 364 726 422 
1228 198 734 703 
1229 457 725 359 
1230 260 728 262 
1231 210 727 718 
1232 262 728 721 
1233 207 727 204 
1234 190 755 433 
1235 131 521 520 
1236 401 736 399 
1237 231 739 235 
1238 398 497 478 
1239 556 563 557 
1240 311 730 219 
1241 521 523 522 
1242 776 785 332 
1243 238 737 240 
1244 377 735 457 
1245 708 729 191 
1246 779 787 291 
1247 582 741 429 
1248 446 747 409 
1249 277 728 260 
1250 692 748 700 
1251 201 734 196 
1252 521 522 520 
1253 339 398 397 
1254 212 740 213 
1255 97 150 98 
1256 78 151 79 
1257 308 739 230 
1258 426 741 427 
1259 189 729 194 
1260 196 734 198 
1261 420 744 445 
1262 214 742 209 
1263 307 740 212 
1264 191 729 189 
1265 765 770 619 
1266 706 737 238 
1267 496 735 381 
1268 338 755 185 
1269 295 745 487 
1270 354 734 201 
1271 185 755 187 
1272 354 760 734 
1273 409 443 436 
1274 235 739 423 
1275 399 736 496 
1276 483 749 719 
1277 194 729 353 
1278 151 555 79 
1279 513 736 401 
1280 730 745 295 
1281 310 748 339 
1282 479 740 307 
1283 240 737 290 
1284 220 746 312 
1285 772 791 288 
1286 205 742 354 
1287 209 742 205 
1288 258 750 277 
1289 734 760 703 
1290 269 753 282 
1291 256 750 258 
1292 700 748 310 
1293 275 751 701 
1294 271 751 275 
1295 429 741 426 
1296 719 749 375 
1297 729 761 353 
1298 409 436 344 
1299 226 743 228 
1300 332 743 226 
1301 228 743 232 
1302 375 749 494 
1303 77 560 78 
1304 98 561 99 
1305 339 748 398 
1306 507 762 405 
1307 151 556 555 
1308 272 763 265 
1309 463 772 694 
1310 419 767 692 
1311 361 762 374 
1312 282 751 271 
1313 31 752 30 
1314 267 753 269 
1315 708 761 729 
1316 479 765 619 
1317 279 758 254 
1318 525 754 527 
1319 579 866 554 
1320 99 179 100 
1321 76 178 77 
1322 485 764 702 
1323 423 756 711 
1324 603 795 605 
1325 485 769 764 
1326 308 756 739 
1327 739 756 423 
1328 254 758 256 
1329 187 755 190 
1330 529 754 525 
1331 256 758 750 
1332 613 782 614 
1333 388 770 502 
1334 323 756 308 
1335 517 759 419 
1336 318 765 479 
1337 409 747 443 
1338 727 764 718 
1339 467 779 469 
1340 720 757 458 
1341 267 763 753 
1342 405 762 361 
1343 506 912 726 
1344 703 760 431 
1345 265 763 267 
1346 508 757 720 
1347 696 769 485 
1348 272 786 763 
1349 702 764 727 
1350 441 785 438 
1351 363 895 670 
1352 432 761 708 
1353 718 764 389 
1354 437 784 771 
1355 764 769 389 
1356 436 765 344 
1357 252 773 279 
1358 491 801 793 
1359 662 776 353 
1360 608 766 609 
1361 344 765 318 
1362 437 771 742 
1363 748 767 398 
1364 692 767 748 
1365 323 768 756 
1366 756 768 711 
1367 662 785 776 
1368 285 775 248 
1369 224 776 332 
1370 353 776 222 
1371 365 788 395 
1372 471 789 473 
1373 288 786 276 
1374 439 791 690 
1375 771 784 705 
1376 711 768 504 
1377 322 783 304 
1378 369 774 696 
1379 659 800 475 
1380 286 783 291 
1381 807 810 380 
1382 317 799 384 
1383 696 774 769 
1384 691 799 298 
1385 283 787 288 
1386 389 769 434 
1387 398 767 497 
1388 698 780 369 
1389 504 777 505 
1390 717 768 323 
1391 619 770 388 
1392 777 781 505 
1393 477 798 453 
1394 288 791 786 
1395 763 786 594 
1396 760 771 705 
1397 369 780 774 
1398 241 901 573 
1399 690 772 463 
1400 250 773 252 
1401 76 859 178 
1402 179 860 100 
1403 769 774 434 
1404 321 794 322 
1405 742 771 354 
1406 772 787 694 
1407 354 771 760 
1408 246 792 285 
1409 491 793 745 
1410 434 774 440 
1411 248 775 250 
1412 768 777 504 
1413 357 803 442 
1414 250 775 773 
1415 290 796 242 
1416 488 797 407 
1417 222 776 224 
1418 793 801 395 
1419 560 917 849 
1420 774 780 440 
1421 790 803 693 
1422 755 778 433 
1423 475 800 472 
1424 717 777 768 
1425 470 800 495 
1426 493 805 333 
1427 694 779 467 
1428 460 781 777 
1429 288 787 772 
1430 440 780 484 
1431 331 809 306 
1432 460 777 717 
1433 743 790 693 
1434 804 805 442 
1435 697 804 390 
1436 338 778 755 
1437 516 806 393 
1438 366 806 367 
1439 705 784 386 
1440 612 782 613 
1441 304 783 286 
1442 784 788 386 
1443 577 781 460 
1444 487 788 784 
1445 487 784 437 
1446 438 785 662 
1447 276 786 272 
1448 441 803 790 
1449 158 890 575 
1450 786 791 594 
1451 386 788 365 
1452 441 790 785 
1453 291 787 283 
1454 586 789 471 
1455 594 791 439 
1456 599 846 585 
1457 332 790 743 
1458 674 813 675 
1459 476 811 511 
1460 358 807 380 
1461 788 793 395 
1462 244 792 246 
1463 605 795 342 
1464 745 793 487 
1465 545 850 584 
1466 576 891 157 
1467 713 812 691 
1468 383 794 321 
1469 493 810 807 
1470 164 817 20 
1471 19 817 138 
1472 242 796 244 
1473 244 796 792 
1474 678 816 677 
1475 64 813 63 
1476 684 814 174 
1477 47 814 46 
1478 130 815 129 
1479 551 894 549 
1480 636 820 166 
1481 585 846 559 
1482 695 894 551 
1483 778 812 433 
1484 664 843 726 
1485 407 797 490 
1486 298 799 317 
1487 453 798 455 
1488 785 790 332 
1489 803 804 442 
1490 679 821 148 
1491 598 812 778 
1492 492 801 491 
1493 544 802 547 
1494 472 800 470 
1495 822 824 455 
1496 554 866 156 
1497 395 801 500 
1498 632 825 633 
1499 487 793 788 
1500 693 803 357 
1501 644 881 529 
1502 442 807 358 
1503 390 804 441 
1504 507 808 762 
1505 127 823 155 
1506 393 806 366 
1507 175 823 128 
1508 333 805 697 
1509 493 807 805 
1510 545 867 850 
1511 600 808 567 
1512 501 838 676 
1513 707 875 152 
1514 778 841 598 
1515 579 839 535 
1516 455 824 456 
1517 584 850 328 
1518 145 828 106 
1519 372 809 331 
1520 447 915 816 
1521 583 858 313 
1522 494 810 493 
1523 824 826 456 
1524 370 829 447 
1525 456 826 519 
1526 737 822 290 
1527 567 876 155 
1528 147 899 628 
1529 543 831 541 
1530 762 808 600 
1531 448 830 513 
1532 380 810 480 
1533 441 804 803 
1534 108 834 107 
1535 160 833 72 
1536 588 811 476 
1537 137 871 629 
1538 798 822 455 
1539 679 872 510 
1540 143 836 25 
1541 826 827 519 
1542 149 845 641 
1543 805 807 442 
1544 433 812 713 
1545 147 869 581 
1546 345 837 403 
1547 676 838 118 
1548 363 837 319 
1549 63 813 674 
1550 117 838 152 
1551 290 822 798 
1552 670 843 665 
1553 174 814 47 
1554 129 815 175 
1555 794 851 588 
1556 677 816 171 
1557 652 848 154 
1558 20 817 19 
1559 585 882 372 
1560 480 842 459 
1561 328 850 249 
1562 634 847 137 
1563 817 842 138 
1564 747 896 161 
1565 618 881 644 
1566 166 820 634 
1567 661 906 172 
1568 113 819 112 
1569 726 843 422 
1570 148 821 678 
1571 169 853 121 
1572 251 858 328 
1573 120 853 136 
1574 313 858 253 
1575 581 899 147 
1576 686 857 685 
1577 104 855 159 
1578 642 865 313 
1579 70 862 146 
1580 73 861 160 
1581 180 861 74 
1582 676 903 501 
1583 529 879 644 
1584 481 824 822 
1585 245 867 320 
1586 630 868 631 
1587 647 840 757 
1588 482 863 483 
1589 23 869 147 
1590 871 902 629 
1591 616 873 617 
1592 481 822 737 
1593 633 825 134 
1594 134 872 14 
1595 13 872 679 
1596 128 823 127 
1597 732 865 530 
1598 427 824 481 
1599 486 917 589 
1600 125 876 653 
1601 241 914 239 
1602 155 876 126 
1603 109 878 108 
1604 811 845 149 
1605 135 912 650 
1606 320 901 243 
1607 492 818 801 
1608 427 826 824 
1609 801 818 500 
1610 1 883 64 
1611 7 883 1 
1612 3 884 75 
1613 46 884 3 
1614 6 885 130 
1615 101 885 6 
1616 498 877 568 
1617 146 907 625 
1618 530 879 526 
1619 672 893 668 
1620 172 906 114 
1621 741 826 427 
1622 478 913 397 
1623 558 900 150 
1624 501 903 465 
1625 342 904 623 
1626 867 888 320 
1627 735 847 457 
1628 168 852 818 
1629 503 899 581 
1630 161 896 590 
1631 508 919 757 
1632 541 888 539 
1633 714 892 518 
1634 112 887 2 
1635 2 887 45 
1636 802 890 158 
1637 723 895 363 
1638 582 827 741 
1639 741 827 826 
1640 106 828 105 
1641 458 840 507 
1642 171 915 681 
1643 403 829 370 
1644 450 830 448 
1645 552 904 551 
1646 514 886 731 
1647 573 831 543 
1648 577 842 817 
1649 392 844 710 
1650 800 832 495 
1651 797 870 490 
1652 623 844 392 
1653 408 916 716 
1654 559 900 558 
1655 544 890 802 
1656 175 877 823 
1657 678 920 698 
1658 72 833 71 
1659 551 904 795 
1660 107 834 145 
1661 652 908 848 
1662 868 897 631 
1663 757 840 458 
1664 519 909 514 
1665 183 889 338 
1666 644 879 643 
1667 483 863 825 
1668 629 902 163 
1669 659 832 800 
1670 780 920 484 
1671 25 836 24 
1672 802 894 547 
1673 319 837 345 
1674 831 901 320 
1675 457 847 820 
1676 480 868 842 
1677 828 855 105 
1678 118 838 117 
1679 535 839 578 
1680 589 896 446 
1681 450 856 830 
1682 169 919 853 
1683 113 906 819 
1684 139 840 647 
1685 584 839 540 
1686 590 896 589 
1687 665 843 664 
1688 840 905 507 
1689 459 842 577 
1690 712 848 489 
1691 489 848 488 
1692 500 852 506 
1693 563 841 557 
1694 833 862 71 
1695 553 844 552 
1696 484 920 821 
1697 495 875 707 
1698 681 915 835 
1699 514 909 886 
1700 641 845 640 
1701 847 871 137 
1702 913 918 404 
1703 338 841 778 
1704 572 882 570 
1705 837 893 403 
1706 818 852 500 
1707 715 903 136 
1708 512 854 478 
1709 154 848 712 
1710 823 877 565 
1711 136 903 676 
1712 151 849 556 
1713 836 869 24 
1714 249 850 247 
1715 806 857 367 
1716 66 910 65 
1717 111 911 110 
1718 588 845 811 
1719 670 895 843 
1720 625 907 502 
1721 650 852 168 
1722 121 853 120 
1723 754 881 617 
1724 494 897 810 
1725 105 855 104 
1726 850 867 247 
1727 591 860 179 
1728 731 856 450 
1729 685 857 688 
1730 253 858 251 
1731 178 859 590 
1732 809 882 572 
1733 139 905 840 
1734 383 851 794 
1735 74 861 73 
1736 71 862 70 
1737 819 864 177 
1738 688 857 806 
1739 510 863 482 
1740 529 881 754 
1741 658 864 661 
1742 643 865 642 
1743 651 908 652 
1744 383 880 851 
1745 533 866 535 
1746 138 868 630 
1747 247 867 245 
1748 627 886 165 
1749 849 898 556 
1750 848 908 488 
1751 820 847 634 
1752 24 869 23 
1753 182 889 183 
1754 490 870 492 
1755 829 874 447 
1756 821 920 678 
1757 496 871 735 
1758 14 872 13 
1759 284 873 616 
1760 545 888 867 
1761 590 910 161 
1762 64 883 813 
1763 130 885 815 
1764 814 884 46 
1765 675 874 673 
1766 162 911 591 
1767 797 908 651 
1768 152 875 680 
1769 680 875 832 
1770 126 876 125 
1771 842 868 138 
1772 110 911 162 
1773 162 878 109 
1774 161 910 66 
1775 565 877 498 
1776 617 881 618 
1777 526 879 529 
1778 45 887 177 
1779 716 880 383 
1780 825 863 134 
1781 176 883 7 
1782 75 884 180 
1783 181 885 101 
1784 496 902 871 
1785 542 890 544 
1786 710 891 499 
1787 539 888 545 
1788 589 917 560 
1789 638 916 637 
1790 669 893 837 
1791 480 897 868 
1792 509 892 714 
1793 668 893 669 
1794 547 894 695 
1795 573 901 831 
1796 832 875 495 
1797 853 919 574 
1798 446 896 747 
1799 243 901 241 
1800 422 895 723 
1801 653 905 139 
1802 165 909 626 
1803 505 899 503 
1804 556 898 563 
1805 114 906 113 
1806 239 914 327 
1807 465 903 715 
1808 664 912 135 
1809 507 905 808 
1810 397 913 404 
1811 502 907 515 
1812 736 902 496 
1813 488 908 797 
1814 574 919 508 
1815 735 871 847 
1816 813 883 176 
1817 180 884 814 
1818 815 885 181 
1819 698 920 780 
1820 372 882 809 
1821 808 905 653 
1822 65 910 859 
1823 860 911 111 
1824 843 895 422 
1825 795 904 342 
1826 512 878 854 
1827 177 887 819 
1828 835 915 447 
1829 819 887 112 
1830 810 897 480 
1831 673 874 829 
1832 447 874 835 
1833 886 909 165 
1834 835 874 675 
1835 854 878 162 
1836 816 915 171 
1837 856 886 627 
1838 846 900 559 
1839 731 886 856 
1840 849 917 486 
1841 880 916 638 
1842 859 910 590 
1843 591 911 860 
1844 716 916 880 
$EndElements
